# xmcd
#
# Track frame offsets: 
#        150
#        9973
#        22923
#        42758
#        55511
#        67488
#        78598
#        94501
#        105621
#        116476
#        127278
#        137576
#
# Disc length: 2059 seconds
#
# Revision: 5
# Processed by: cddbd v1.5.2PL0 Copyright (c) Steve Scherf et al.
# Submitted via: ExactAudioCopy v1.0b3
#
DISCID=9808090c
DTITLE=Junior Brown - 12 Shades Of Brown
DYEAR=1993
DGENRE=Country
TTITLE0=My Baby Don't Dance To Nothing But Ernest Tubb
TTITLE1=Baby Let The Bad Times Be
TTITLE2=Freeborn Man
TTITLE3=They Don't Choose To Live That Way
TTITLE4=Too Many Nights In A Roadhouse
TTITLE5=Hillbilly Hula Gal
TTITLE6=A Way To Survive
TTITLE7=Broke Down South Of Dallas
TTITLE8=What's Left Just Won't Go Right
TTITLE9=Moan All Night Long
TTITLE10=Coconut Island
TTITLE11=Don't Sell The Farm
EXTD=
EXTT0=
EXTT1=
EXTT2=
EXTT3=
EXTT4=
EXTT5=
EXTT6=
EXTT7=
EXTT8=
EXTT9=
EXTT10=
EXTT11=
PLAYORDER=
